<svg xmlns="http://www.w3.org/2000/svg" xmlns:xlink="http://www.w3.org/1999/xlink" zoomAndPan="magnify" viewBox="20 206 770 670" preserveAspectRatio="xMidYMid meet" version="1.0"><defs><clipPath id="8a31af861e"><path d="M 0.199219 0 L 809.800781 0 L 809.800781 1012 L 0.199219 1012 Z M 0.199219 0 " clip-rule="nonzero"/></clipPath><clipPath id="cf906929d9"><path d="M 40.933594 216.246094 L 98.417969 216.246094 L 98.417969 235.839844 L 40.933594 235.839844 Z M 40.933594 216.246094 " clip-rule="nonzero"/></clipPath><clipPath id="8d9f31f870"><path d="M 0.933594 0.246094 L 58.417969 0.246094 L 58.417969 19.839844 L 0.933594 19.839844 Z M 0.933594 0.246094 " clip-rule="nonzero"/></clipPath><clipPath id="8eed820d90"><rect x="0" width="59" y="0" height="20"/></clipPath><clipPath id="01d8ae1dd3"><path d="M 30 215 L 56 215 L 56 245 L 30 245 Z M 30 215 " clip-rule="nonzero"/></clipPath><clipPath id="bce7882da5"><path d="M 30.957031 217.542969 L 55.292969 215.941406 L 57.144531 244.078125 L 32.8125 245.679688 Z M 30.957031 217.542969 " clip-rule="nonzero"/></clipPath><clipPath id="0dbeb05737"><path d="M 44.976562 244.855469 L 55.292969 215.941406 L 30.957031 217.542969 Z M 44.976562 244.855469 " clip-rule="nonzero"/></clipPath><clipPath id="7da9b031d5"><path d="M 0.90625 0.894531 L 25.371094 0.894531 L 25.371094 29.917969 L 0.90625 29.917969 Z M 0.90625 0.894531 " clip-rule="nonzero"/></clipPath><clipPath id="be06256c4b"><path d="M 0.957031 2.542969 L 25.292969 0.941406 L 27.144531 29.078125 L 2.8125 30.679688 Z M 0.957031 2.542969 " clip-rule="nonzero"/></clipPath><clipPath id="219e64d725"><path d="M 14.976562 29.855469 L 25.292969 0.941406 L 0.957031 2.542969 Z M 14.976562 29.855469 " clip-rule="nonzero"/></clipPath><clipPath id="193d5a5d88"><rect x="0" width="26" y="0" height="30"/></clipPath><clipPath id="afa42da1dd"><path d="M 294 686 L 381 686 L 381 804 L 294 804 Z M 294 686 " clip-rule="nonzero"/></clipPath><clipPath id="93ef277e9a"><path d="M 294.457031 785.433594 L 338.546875 686.394531 L 380.222656 704.949219 L 336.132812 803.988281 Z M 294.457031 785.433594 " clip-rule="nonzero"/></clipPath><clipPath id="fc9fe81f26"><path d="M 0.292969 0.300781 L 86.414062 0.300781 L 86.414062 118 L 0.292969 118 Z M 0.292969 0.300781 " clip-rule="nonzero"/></clipPath><clipPath id="3a5933536d"><path d="M 0.457031 99.433594 L 44.546875 0.394531 L 86.222656 18.949219 L 42.132812 117.988281 Z M 0.457031 99.433594 " clip-rule="nonzero"/></clipPath><clipPath id="8cfc3c8703"><rect x="0" width="87" y="0" height="118"/></clipPath><clipPath id="17dcd83fce"><path d="M 294 784 L 344 784 L 344 837 L 294 837 Z M 294 784 " clip-rule="nonzero"/></clipPath><clipPath id="1165ad286b"><path d="M 349.136719 833.484375 L 299.652344 838.933594 L 294.289062 790.210938 L 343.773438 784.761719 Z M 349.136719 833.484375 " clip-rule="nonzero"/></clipPath><clipPath id="bfd058a09e"><path d="M 324.476562 836.199219 L 294.449219 790.191406 L 343.773438 784.761719 Z M 324.476562 836.199219 " clip-rule="nonzero"/></clipPath><clipPath id="1d59e59bbb"><path d="M 0.292969 0.652344 L 49.949219 0.652344 L 49.949219 52.226562 L 0.292969 52.226562 Z M 0.292969 0.652344 " clip-rule="nonzero"/></clipPath><clipPath id="3bfe1ed951"><path d="M 55.136719 49.484375 L 5.652344 54.933594 L 0.289062 6.210938 L 49.773438 0.761719 Z M 55.136719 49.484375 " clip-rule="nonzero"/></clipPath><clipPath id="33a5ac80f3"><path d="M 30.476562 52.199219 L 0.449219 6.191406 L 49.773438 0.761719 Z M 30.476562 52.199219 " clip-rule="nonzero"/></clipPath><clipPath id="65bad9029e"><rect x="0" width="50" y="0" height="53"/></clipPath><clipPath id="401dad8cda"><path d="M 264 700 L 338 700 L 338 792 L 264 792 Z M 264 700 " clip-rule="nonzero"/></clipPath><clipPath id="3aa4bf8dbe"><path d="M 295.292969 791.625 L 264.550781 718.597656 L 306.59375 700.898438 L 337.335938 773.925781 Z M 295.292969 791.625 " clip-rule="nonzero"/></clipPath><clipPath id="e12063f3bd"><path d="M 0.308594 0.695312 L 73.472656 0.695312 L 73.472656 91.847656 L 0.308594 91.847656 Z M 0.308594 0.695312 " clip-rule="nonzero"/></clipPath><clipPath id="a0d23d34d6"><path d="M 31.292969 91.625 L 0.550781 18.597656 L 42.59375 0.898438 L 73.335938 73.925781 Z M 31.292969 91.625 " clip-rule="nonzero"/></clipPath><clipPath id="4ad841ca08"><rect x="0" width="74" y="0" height="92"/></clipPath><clipPath id="cb861c9201"><path d="M 118 364 L 372 364 L 372 757 L 118 757 Z M 118 364 " clip-rule="nonzero"/></clipPath><clipPath id="e906ad9bb7"><path d="M 283.019531 756.691406 L 118.796875 406.121094 L 207.507812 364.566406 L 371.730469 715.132812 Z M 283.019531 756.691406 " clip-rule="nonzero"/></clipPath><clipPath id="82118b0220"><path d="M 0.703125 0.378906 L 253.777344 0.378906 L 253.777344 392.828125 L 0.703125 392.828125 Z M 0.703125 0.378906 " clip-rule="nonzero"/></clipPath><clipPath id="6675c81526"><path d="M 165.019531 392.691406 L 0.796875 42.121094 L 89.507812 0.566406 L 253.730469 351.132812 Z M 165.019531 392.691406 " clip-rule="nonzero"/></clipPath><clipPath id="94b4e89e66"><rect x="0" width="254" y="0" height="393"/></clipPath><clipPath id="782f47c28d"><path d="M 118.792969 364.570312 L 505.921875 364.570312 L 505.921875 407.675781 L 118.792969 407.675781 Z M 118.792969 364.570312 " clip-rule="nonzero"/></clipPath><clipPath id="b268e4751f"><path d="M 0.792969 0.570312 L 387.921875 0.570312 L 387.921875 43.675781 L 0.792969 43.675781 Z M 0.792969 0.570312 " clip-rule="nonzero"/></clipPath><clipPath id="feb4543001"><rect x="0" width="388" y="0" height="44"/></clipPath><clipPath id="18d96b3047"><path d="M 143.085938 394.34375 L 487.894531 394.34375 L 487.894531 456.257812 L 143.085938 456.257812 Z M 143.085938 394.34375 " clip-rule="nonzero"/></clipPath><clipPath id="4eba25d395"><path d="M 0.0859375 0.34375 L 344.894531 0.34375 L 344.894531 62.257812 L 0.0859375 62.257812 Z M 0.0859375 0.34375 " clip-rule="nonzero"/></clipPath><clipPath id="95d6d9dd49"><rect x="0" width="345" y="0" height="63"/></clipPath><clipPath id="d191908511"><path d="M 156.800781 424.914062 L 474.175781 424.914062 L 474.175781 473.503906 L 156.800781 473.503906 Z M 156.800781 424.914062 " clip-rule="nonzero"/></clipPath><clipPath id="c4a530debd"><path d="M 0.800781 0.914062 L 318.175781 0.914062 L 318.175781 49.503906 L 0.800781 49.503906 Z M 0.800781 0.914062 " clip-rule="nonzero"/></clipPath><clipPath id="fdbd35ec17"><rect x="0" width="319" y="0" height="50"/></clipPath><clipPath id="2b87e93084"><path d="M 98.417969 364.570312 L 226.929688 364.570312 L 226.929688 501 L 98.417969 501 Z M 98.417969 364.570312 " clip-rule="nonzero"/></clipPath><clipPath id="7098f2b282"><path d="M 162.671875 500.628906 L 226.929688 364.570312 L 98.417969 364.570312 Z M 162.671875 500.628906 " clip-rule="nonzero"/></clipPath><clipPath id="4f16fbeb75"><path d="M 0.417969 0.570312 L 128.929688 0.570312 L 128.929688 136.632812 L 0.417969 136.632812 Z M 0.417969 0.570312 " clip-rule="nonzero"/></clipPath><clipPath id="fe1a92448a"><path d="M 64.671875 136.628906 L 128.929688 0.570312 L 0.417969 0.570312 Z M 64.671875 136.628906 " clip-rule="nonzero"/></clipPath><clipPath id="947a51a20c"><rect x="0" width="129" y="0" height="137"/></clipPath><clipPath id="7e3bf2a7c0"><path d="M 422.808594 364.570312 L 523.792969 364.570312 L 523.792969 500.664062 L 422.808594 500.664062 Z M 422.808594 364.570312 " clip-rule="nonzero"/></clipPath><clipPath id="e48b2b0ec5"><path d="M 473.300781 500.628906 L 523.792969 364.570312 L 422.808594 364.570312 Z M 473.300781 500.628906 " clip-rule="nonzero"/></clipPath><clipPath id="11e62f1aaa"><path d="M 0.808594 0.570312 L 101.792969 0.570312 L 101.792969 136.632812 L 0.808594 136.632812 Z M 0.808594 0.570312 " clip-rule="nonzero"/></clipPath><clipPath id="8dc70c86ab"><path d="M 51.300781 136.628906 L 101.792969 0.570312 L 0.808594 0.570312 Z M 51.300781 136.628906 " clip-rule="nonzero"/></clipPath><clipPath id="4489185622"><rect x="0" width="102" y="0" height="137"/></clipPath><clipPath id="1cbfbff1e2"><path d="M 83.164062 216.25 L 731.816406 216.25 L 731.816406 325.054688 L 83.164062 325.054688 Z M 83.164062 216.25 " clip-rule="nonzero"/></clipPath><clipPath id="cc1ef357c5"><path d="M 0.164062 0.25 L 648.816406 0.25 L 648.816406 109.054688 L 0.164062 109.054688 Z M 0.164062 0.25 " clip-rule="nonzero"/></clipPath><clipPath id="d21006aad3"><rect x="0" width="649" y="0" height="110"/></clipPath><clipPath id="878a8009e0"><path d="M 40 216 L 123 216 L 123 326 L 40 326 Z M 40 216 " clip-rule="nonzero"/></clipPath><clipPath id="1946babd69"><path d="M 40.933594 234.597656 L 81.839844 216.253906 L 122.40625 306.710938 L 81.496094 325.058594 Z M 40.933594 234.597656 " clip-rule="nonzero"/></clipPath><clipPath id="db6b39293a"><path d="M 0.738281 0.132812 L 82.539062 0.132812 L 82.539062 109.28125 L 0.738281 109.28125 Z M 0.738281 0.132812 " clip-rule="nonzero"/></clipPath><clipPath id="7b0ed6ac23"><path d="M 0.933594 18.597656 L 41.839844 0.253906 L 82.40625 90.710938 L 41.496094 109.058594 Z M 0.933594 18.597656 " clip-rule="nonzero"/></clipPath><clipPath id="568483f2f2"><rect x="0" width="83" y="0" height="110"/></clipPath><clipPath id="a0b580e9a9"><path d="M 731.8125 217.027344 L 779.042969 217.027344 L 779.042969 270.714844 L 731.8125 270.714844 Z M 731.8125 217.027344 " clip-rule="nonzero"/></clipPath><clipPath id="562816b9cf"><path d="M 755.425781 270.65625 L 779.042969 217.027344 L 731.8125 217.027344 Z M 755.425781 270.65625 " clip-rule="nonzero"/></clipPath><clipPath id="3a1cc96e96"><path d="M 0.8125 0.0273438 L 48.042969 0.0273438 L 48.042969 53.714844 L 0.8125 53.714844 Z M 0.8125 0.0273438 " clip-rule="nonzero"/></clipPath><clipPath id="3eeeb37b4e"><path d="M 24.425781 53.65625 L 48.042969 0.0273438 L 0.8125 0.0273438 Z M 24.425781 53.65625 " clip-rule="nonzero"/></clipPath><clipPath id="803bc7efe1"><rect x="0" width="49" y="0" height="54"/></clipPath><clipPath id="653c58179c"><path d="M 581 217 L 759 217 L 759 418 L 581 418 Z M 581 217 " clip-rule="nonzero"/></clipPath><clipPath id="c41db4c27d"><path d="M 691.171875 417.660156 L 581.941406 369.664062 L 649.015625 217.015625 L 758.246094 265.011719 Z M 691.171875 417.660156 " clip-rule="nonzero"/></clipPath><clipPath id="90b42c81cc"><path d="M 0.914062 0 L 177.464844 0 L 177.464844 200.875 L 0.914062 200.875 Z M 0.914062 0 " clip-rule="nonzero"/></clipPath><clipPath id="2179055355"><path d="M 110.171875 200.660156 L 0.941406 152.664062 L 68.015625 0.015625 L 177.246094 48.011719 Z M 110.171875 200.660156 " clip-rule="nonzero"/></clipPath><clipPath id="64462e0903"><rect x="0" width="178" y="0" height="201"/></clipPath><clipPath id="0eba713f0c"><path d="M 724 217 L 759 217 L 759 267 L 724 267 Z M 724 217 " clip-rule="nonzero"/></clipPath><clipPath id="7dcaba5d76"><path d="M 724.660156 262.234375 L 731.296875 217.019531 L 758.824219 221.0625 L 752.1875 266.273438 Z M 724.660156 262.234375 " clip-rule="nonzero"/></clipPath><clipPath id="de87eb523d"><path d="M 0.640625 0 L 34.945312 0 L 34.945312 49.507812 L 0.640625 49.507812 Z M 0.640625 0 " clip-rule="nonzero"/></clipPath><clipPath id="3796723c2a"><path d="M 0.660156 45.234375 L 7.296875 0.0195312 L 34.824219 4.0625 L 28.1875 49.273438 Z M 0.660156 45.234375 " clip-rule="nonzero"/></clipPath><clipPath id="180310e4aa"><rect x="0" width="35" y="0" height="50"/></clipPath><clipPath id="58ce7a94e2"><path d="M 373 355 L 697 355 L 697 866 L 373 866 Z M 373 355 " clip-rule="nonzero"/></clipPath><clipPath id="b12a31033d"><path d="M 482.136719 865.632812 L 373.996094 815.238281 L 588.25 355.453125 L 696.394531 405.847656 Z M 482.136719 865.632812 " clip-rule="nonzero"/></clipPath><clipPath id="7f12e68e80"><path d="M 0.933594 0.265625 L 323.574219 0.265625 L 323.574219 510.730469 L 0.933594 510.730469 Z M 0.933594 0.265625 " clip-rule="nonzero"/></clipPath><clipPath id="baaad72a19"><path d="M 109.136719 510.632812 L 0.996094 460.238281 L 215.25 0.453125 L 323.394531 50.847656 Z M 109.136719 510.632812 " clip-rule="nonzero"/></clipPath><clipPath id="a8812003ad"><rect x="0" width="324" y="0" height="511"/></clipPath><clipPath id="de31b24d5a"><path d="M 373 823 L 483 823 L 483 866 L 373 866 Z M 373 823 " clip-rule="nonzero"/></clipPath><clipPath id="b7921104ae"><path d="M 373.992188 823.972656 L 482.851562 826.5625 L 481.921875 865.632812 L 373.066406 863.046875 Z M 373.992188 823.972656 " clip-rule="nonzero"/></clipPath><clipPath id="e8ce7ed586"><path d="M 0 0.753906 L 110 0.753906 L 110 42.730469 L 0 42.730469 Z M 0 0.753906 " clip-rule="nonzero"/></clipPath><clipPath id="51ca82b359"><path d="M 0.992188 0.972656 L 109.851562 3.5625 L 108.921875 42.632812 L 0.0664062 40.046875 Z M 0.992188 0.972656 " clip-rule="nonzero"/></clipPath><clipPath id="dcc278498b"><rect x="0" width="110" y="0" height="43"/></clipPath><clipPath id="4a23ffee5c"><path d="M 354 753 L 437 753 L 437 866 L 354 866 Z M 354 753 " clip-rule="nonzero"/></clipPath><clipPath id="bb53c8a246"><path d="M 354.8125 849.699219 L 406.453125 753.835938 L 436.027344 769.765625 L 384.386719 865.628906 Z M 354.8125 849.699219 " clip-rule="nonzero"/></clipPath><clipPath id="9f30580263"><path d="M 0.746094 0.707031 L 82.066406 0.707031 L 82.066406 112.730469 L 0.746094 112.730469 Z M 0.746094 0.707031 " clip-rule="nonzero"/></clipPath><clipPath id="42e692348b"><path d="M 0.8125 96.699219 L 52.453125 0.835938 L 82.027344 16.765625 L 30.386719 112.628906 Z M 0.8125 96.699219 " clip-rule="nonzero"/></clipPath><clipPath id="d819e8e007"><rect x="0" width="83" y="0" height="113"/></clipPath><clipPath id="22136269dc"><path d="M 346.511719 812.722656 L 401.519531 812.722656 L 401.519531 865.070312 L 346.511719 865.070312 Z M 346.511719 812.722656 " clip-rule="nonzero"/></clipPath><clipPath id="e6fa08d9d2"><path d="M 373.996094 812.722656 L 401.476562 865.070312 L 346.511719 865.070312 Z M 373.996094 812.722656 " clip-rule="nonzero"/></clipPath><clipPath id="99589d0bc0"><path d="M 0.511719 0.722656 L 55.519531 0.722656 L 55.519531 53.070312 L 0.511719 53.070312 Z M 0.511719 0.722656 " clip-rule="nonzero"/></clipPath><clipPath id="b5a47d0cd5"><path d="M 27.996094 0.722656 L 55.476562 53.070312 L 0.511719 53.070312 Z M 27.996094 0.722656 " clip-rule="nonzero"/></clipPath><clipPath id="1c9857f02d"><rect x="0" width="56" y="0" height="54"/></clipPath><clipPath id="c29c3a52c8"><path d="M 193 364 L 381 364 L 381 718 L 193 718 Z M 193 364 " clip-rule="nonzero"/></clipPath><clipPath id="f3da85d813"><path d="M 353.257812 717.835938 L 193.683594 377.191406 L 220.640625 364.5625 L 380.21875 705.210938 Z M 353.257812 717.835938 " clip-rule="nonzero"/></clipPath><clipPath id="aa1ec079dd"><path d="M 0.542969 0.378906 L 187.414062 0.378906 L 187.414062 353.964844 L 0.542969 353.964844 Z M 0.542969 0.378906 " clip-rule="nonzero"/></clipPath><clipPath id="d1067726b4"><path d="M 160.257812 353.835938 L 0.683594 13.191406 L 27.640625 0.5625 L 187.21875 341.210938 Z M 160.257812 353.835938 " clip-rule="nonzero"/></clipPath><clipPath id="5daed9a05e"><rect x="0" width="188" y="0" height="354"/></clipPath></defs><g clip-path="url(#cf906929d9)"><g transform="matrix(1, 0, 0, 1, 40, 216)"><g clip-path="url(#8eed820d90)"><g clip-path="url(#8d9f31f870)"><path fill="#3abef9" d="M 0.933594 19.839844 L 0.933594 0.246094 L 58.410156 0.246094 L 58.410156 19.839844 Z M 0.933594 19.839844 " fill-opacity="1" fill-rule="nonzero"/></g></g></g></g><g clip-path="url(#01d8ae1dd3)"><g clip-path="url(#bce7882da5)"><g clip-path="url(#0dbeb05737)"><g transform="matrix(1, 0, 0, 1, 30, 215)"><g clip-path="url(#193d5a5d88)"><g clip-path="url(#7da9b031d5)"><g clip-path="url(#be06256c4b)"><g clip-path="url(#219e64d725)"><path fill="#3abef9" d="M 0.957031 2.542969 L 25.292969 0.941406 L 27.144531 29.078125 L 2.8125 30.679688 Z M 0.957031 2.542969 " fill-opacity="1" fill-rule="nonzero"/></g></g></g></g></g></g></g></g><g clip-path="url(#afa42da1dd)"><g clip-path="url(#93ef277e9a)"><g transform="matrix(1, 0, 0, 1, 294, 686)"><g clip-path="url(#8cfc3c8703)"><g clip-path="url(#fc9fe81f26)"><g clip-path="url(#3a5933536d)"><path fill="#3abef9" d="M 0.457031 99.433594 L 44.519531 0.457031 L 86.195312 19.007812 L 42.132812 117.988281 Z M 0.457031 99.433594 " fill-opacity="1" fill-rule="nonzero"/></g></g></g></g></g></g><g clip-path="url(#17dcd83fce)"><g clip-path="url(#1165ad286b)"><g clip-path="url(#bfd058a09e)"><g transform="matrix(1, 0, 0, 1, 294, 784)"><g clip-path="url(#65bad9029e)"><g clip-path="url(#1d59e59bbb)"><g clip-path="url(#3bfe1ed951)"><g clip-path="url(#33a5ac80f3)"><path fill="#3abef9" d="M 55.136719 49.484375 L 5.84375 54.910156 L 0.476562 6.1875 L 49.773438 0.761719 Z M 55.136719 49.484375 " fill-opacity="1" fill-rule="nonzero"/></g></g></g></g></g></g></g></g><g clip-path="url(#401dad8cda)"><g clip-path="url(#3aa4bf8dbe)"><g transform="matrix(1, 0, 0, 1, 264, 700)"><g clip-path="url(#4ad841ca08)"><g clip-path="url(#e12063f3bd)"><g clip-path="url(#a0d23d34d6)"><path fill="#3abef9" d="M 31.292969 91.625 L 0.523438 18.539062 L 42.570312 0.839844 L 73.335938 73.925781 Z M 31.292969 91.625 " fill-opacity="1" fill-rule="nonzero"/></g></g></g></g></g></g><g clip-path="url(#cb861c9201)"><g clip-path="url(#e906ad9bb7)"><g transform="matrix(1, 0, 0, 1, 118, 364)"><g clip-path="url(#94b4e89e66)"><g clip-path="url(#82118b0220)"><g clip-path="url(#6675c81526)"><path fill="#3abef9" d="M 165.019531 392.691406 L 0.738281 41.996094 L 89.449219 0.441406 L 253.730469 351.132812 Z M 165.019531 392.691406 " fill-opacity="1" fill-rule="nonzero"/></g></g></g></g></g></g><g clip-path="url(#782f47c28d)"><g transform="matrix(1, 0, 0, 1, 118, 364)"><g clip-path="url(#feb4543001)"><g clip-path="url(#b268e4751f)"><path fill="#3abef9" d="M 0.792969 0.570312 L 387.894531 0.570312 L 387.894531 43.675781 L 0.792969 43.675781 Z M 0.792969 0.570312 " fill-opacity="1" fill-rule="nonzero"/></g></g></g></g><g clip-path="url(#18d96b3047)"><g transform="matrix(1, 0, 0, 1, 143, 394)"><g clip-path="url(#95d6d9dd49)"><g clip-path="url(#4eba25d395)"><path fill="#3abef9" d="M 344.894531 62.257812 L 0.015625 62.257812 L 0.015625 0.34375 L 344.894531 0.34375 Z M 344.894531 62.257812 " fill-opacity="1" fill-rule="nonzero"/></g></g></g></g><g clip-path="url(#d191908511)"><g transform="matrix(1, 0, 0, 1, 156, 424)"><g clip-path="url(#fdbd35ec17)"><g clip-path="url(#c4a530debd)"><path fill="#3abef9" d="M 318.175781 49.503906 L 0.816406 49.503906 L 0.816406 0.914062 L 318.175781 0.914062 Z M 318.175781 49.503906 " fill-opacity="1" fill-rule="nonzero"/></g></g></g></g><g clip-path="url(#2b87e93084)"><g clip-path="url(#7098f2b282)"><g transform="matrix(1, 0, 0, 1, 98, 364)"><g clip-path="url(#947a51a20c)"><g clip-path="url(#4f16fbeb75)"><g clip-path="url(#fe1a92448a)"><path fill="#3abef9" d="M 0.417969 0.570312 L 128.929688 0.570312 L 128.929688 136.613281 L 0.417969 136.613281 Z M 0.417969 0.570312 " fill-opacity="1" fill-rule="nonzero"/></g></g></g></g></g></g><g clip-path="url(#7e3bf2a7c0)"><g clip-path="url(#e48b2b0ec5)"><g transform="matrix(1, 0, 0, 1, 422, 364)"><g clip-path="url(#4489185622)"><g clip-path="url(#11e62f1aaa)"><g clip-path="url(#8dc70c86ab)"><path fill="#3abef9" d="M 0.808594 0.570312 L 101.792969 0.570312 L 101.792969 136.664062 L 0.808594 136.664062 Z M 0.808594 0.570312 " fill-opacity="1" fill-rule="nonzero"/></g></g></g></g></g></g><g clip-path="url(#1cbfbff1e2)"><g transform="matrix(1, 0, 0, 1, 83, 216)"><g clip-path="url(#d21006aad3)"><g clip-path="url(#cc1ef357c5)"><path fill="#3abef9" d="M 0.164062 109.054688 L 0.164062 0.25 L 648.734375 0.25 L 648.734375 109.054688 Z M 0.164062 109.054688 " fill-opacity="1" fill-rule="nonzero"/></g></g></g></g><g clip-path="url(#878a8009e0)"><g clip-path="url(#1946babd69)"><g transform="matrix(1, 0, 0, 1, 40, 216)"><g clip-path="url(#568483f2f2)"><g clip-path="url(#db6b39293a)"><g clip-path="url(#7b0ed6ac23)"><path fill="#3abef9" d="M 0.933594 18.597656 L 41.839844 0.253906 L 82.398438 90.699219 L 41.492188 109.042969 Z M 0.933594 18.597656 " fill-opacity="1" fill-rule="nonzero"/></g></g></g></g></g></g><g clip-path="url(#a0b580e9a9)"><g clip-path="url(#562816b9cf)"><g transform="matrix(1, 0, 0, 1, 731, 217)"><g clip-path="url(#803bc7efe1)"><g clip-path="url(#3a1cc96e96)"><g clip-path="url(#3eeeb37b4e)"><path fill="#3abef9" d="M 0.8125 0.0273438 L 48.042969 0.0273438 L 48.042969 53.714844 L 0.8125 53.714844 Z M 0.8125 0.0273438 " fill-opacity="1" fill-rule="nonzero"/></g></g></g></g></g></g><g clip-path="url(#653c58179c)"><g clip-path="url(#c41db4c27d)"><g transform="matrix(1, 0, 0, 1, 581, 217)"><g clip-path="url(#64462e0903)"><g clip-path="url(#90b42c81cc)"><g clip-path="url(#2179055355)"><path fill="#3abef9" d="M 110.171875 200.660156 L 0.941406 152.664062 L 68.0625 -0.0859375 L 177.289062 47.910156 Z M 110.171875 200.660156 " fill-opacity="1" fill-rule="nonzero"/></g></g></g></g></g></g><g clip-path="url(#0eba713f0c)"><g clip-path="url(#7dcaba5d76)"><g transform="matrix(1, 0, 0, 1, 724, 217)"><g clip-path="url(#180310e4aa)"><g clip-path="url(#de87eb523d)"><g clip-path="url(#3796723c2a)"><path fill="#3abef9" d="M 0.660156 45.234375 L 7.289062 0.0703125 L 34.816406 4.113281 L 28.1875 49.273438 Z M 0.660156 45.234375 " fill-opacity="1" fill-rule="nonzero"/></g></g></g></g></g></g><g clip-path="url(#58ce7a94e2)"><g clip-path="url(#b12a31033d)"><g transform="matrix(1, 0, 0, 1, 373, 355)"><g clip-path="url(#a8812003ad)"><g clip-path="url(#7f12e68e80)"><g clip-path="url(#baaad72a19)"><path fill="#3abef9" d="M 109.136719 510.632812 L 0.996094 460.238281 L 215.167969 0.628906 L 323.3125 51.023438 Z M 109.136719 510.632812 " fill-opacity="1" fill-rule="nonzero"/></g></g></g></g></g></g><g clip-path="url(#de31b24d5a)"><g clip-path="url(#b7921104ae)"><g transform="matrix(1, 0, 0, 1, 373, 823)"><g clip-path="url(#dcc278498b)"><g clip-path="url(#e8ce7ed586)"><g clip-path="url(#51ca82b359)"><path fill="#3abef9" d="M 0.992188 0.972656 L 109.816406 3.558594 L 108.886719 42.632812 L 0.0664062 40.046875 Z M 0.992188 0.972656 " fill-opacity="1" fill-rule="nonzero"/></g></g></g></g></g></g><g clip-path="url(#4a23ffee5c)"><g clip-path="url(#bb53c8a246)"><g transform="matrix(1, 0, 0, 1, 354, 753)"><g clip-path="url(#d819e8e007)"><g clip-path="url(#9f30580263)"><g clip-path="url(#42e692348b)"><path fill="#3abef9" d="M 0.8125 96.699219 L 52.464844 0.816406 L 82.035156 16.746094 L 30.386719 112.628906 Z M 0.8125 96.699219 " fill-opacity="1" fill-rule="nonzero"/></g></g></g></g></g></g><g clip-path="url(#22136269dc)"><g clip-path="url(#e6fa08d9d2)"><g transform="matrix(1, 0, 0, 1, 346, 812)"><g clip-path="url(#1c9857f02d)"><g clip-path="url(#99589d0bc0)"><g clip-path="url(#b5a47d0cd5)"><path fill="#3abef9" d="M 0.511719 0.722656 L 55.519531 0.722656 L 55.519531 53.070312 L 0.511719 53.070312 Z M 0.511719 0.722656 " fill-opacity="1" fill-rule="nonzero"/></g></g></g></g></g></g><g clip-path="url(#c29c3a52c8)"><g clip-path="url(#f3da85d813)"><g transform="matrix(1, 0, 0, 1, 193, 364)"><g clip-path="url(#5daed9a05e)"><g clip-path="url(#aa1ec079dd)"><g clip-path="url(#d1067726b4)"><path fill="#3abef9" d="M 160.257812 353.835938 L 0.671875 13.171875 L 27.632812 0.542969 L 187.21875 341.210938 Z M 160.257812 353.835938 " fill-opacity="1" fill-rule="nonzero"/></g></g></g></g></g></g></svg>